# xmcd
#
# Track frame offsets: 
#        150
#        7730
#        20654
#        38335
#        56221
#        75034
#        88654
#        108361
#        121437
#        141173
#        160179
#
# Disc length: 2348 seconds
#
# Revision: 2
# Processed by: cddbd v1.5.2PL0 Copyright (c) Steve Scherf et al.
# Submitted via: ExactAudioCopy v0.95b4
#
DISCID=78092a0b
DTITLE=Various Artist - Special Wish
DYEAR=1998
DGENRE=Christmas
TTITLE0=Amy Grant-Santa's Reindeer Ride
TTITLE1=B J Thomas-On This Christmas Night
TTITLE2=Tennessee Ernie Ford-Born A Child In Bethlehem
TTITLE3=Marilyn McCoo-O Holy Night
TTITLE4=Chris Christian-Christmas With Children
TTITLE5=Chris Christian and Courtney-Jingle Bells
TTITLE6=Eric Champion-Christmas Kind Of World
TTITLE7=B W Stevenson-A Special Wish
TTITLE8=Chris Christian-Christmas All Year Round
TTITLE9=Marilyn McCoo-Silent Night
TTITLE10=Eric Champion-Hot Christmas
EXTD=
EXTT0=
EXTT1=
EXTT2=
EXTT3=
EXTT4=
EXTT5=
EXTT6=
EXTT7=
EXTT8=
EXTT9=
EXTT10=
PLAYORDER=
